<?xml version="1.0" standalone="no"?>
<!DOCTYPE svg PUBLIC "-//W3C//DTD SVG 20010904//EN"
 "http://www.w3.org/TR/2001/REC-SVG-20010904/DTD/svg10.dtd">
<svg version="1.0" xmlns="http://www.w3.org/2000/svg"
 width="1280.000000pt" height="854.000000pt" viewBox="0 0 1280.000000 854.000000"
 preserveAspectRatio="xMidYMid meet">
<metadata>
Created by potrace 1.15, written by Peter Selinger 2001-2017
</metadata>
<g transform="translate(0.000000,854.000000) scale(0.100000,-0.100000)"
fill="#000000" stroke="none">
<path d="M3006 6270 c-336 -18 -897 -62 -1036 -81 -274 -38 -743 -140 -945
-206 -226 -73 -380 -178 -506 -346 -144 -190 -201 -412 -201 -767 1 -279 30
-526 94 -800 84 -364 228 -698 422 -985 73 -108 240 -277 318 -323 143 -84
376 -156 672 -207 588 -102 1342 -113 2014 -29 394 49 630 100 947 205 311
103 443 183 578 349 176 217 323 517 438 889 125 407 199 769 228 1113 25 299
119 378 447 378 203 0 317 -50 381 -165 39 -73 50 -121 63 -290 25 -334 179
-977 316 -1317 143 -356 342 -655 518 -777 127 -88 326 -167 634 -251 749
-206 1903 -250 2732 -104 435 76 636 155 804 313 120 114 216 250 335 473 194
363 314 789 352 1253 23 280 11 547 -32 713 -87 332 -316 565 -669 677 -189
61 -594 151 -870 194 -171 26 -189 28 -576 56 -555 40 -802 48 -1263 42 -363
-4 -461 -9 -667 -31 -476 -51 -907 -136 -1170 -232 -335 -122 -529 -162 -834
-171 -322 -9 -476 17 -875 148 -132 43 -305 94 -385 113 -212 51 -580 112
-860 142 -225 24 -287 26 -745 29 -275 2 -571 -1 -659 -5z m1254 -209 c338
-36 615 -82 859 -142 356 -88 538 -211 603 -409 19 -58 22 -94 26 -317 3 -201
1 -273 -13 -360 -113 -733 -335 -1338 -607 -1650 -103 -118 -204 -182 -396
-252 -464 -169 -1003 -255 -1685 -268 -686 -13 -1353 81 -1651 234 -248 128
-503 506 -654 973 -143 443 -191 1008 -112 1339 44 184 162 364 304 466 125
89 233 133 471 195 338 86 662 142 965 164 657 50 766 54 1290 50 326 -2 443
-7 600 -23z m5580 19 c129 -5 296 -14 370 -20 74 -5 232 -17 350 -25 321 -23
753 -100 1068 -190 281 -80 438 -182 562 -365 142 -210 184 -471 145 -915 -18
-213 -27 -270 -76 -475 -63 -263 -155 -501 -280 -718 -98 -170 -136 -221 -243
-327 -83 -83 -117 -109 -191 -147 -302 -154 -947 -247 -1640 -235 -695 12
-1239 99 -1708 272 -238 88 -354 181 -498 400 -188 283 -342 707 -443 1215
-57 286 -66 367 -66 603 0 353 27 440 181 572 97 84 231 141 471 199 307 75
793 143 1133 159 150 8 652 6 865 -3z"/>
<path d="M3479 5948 c16 -38 71 -250 71 -274 0 -9 -14 -13 -70 -17 -22 -2 -28
9 -75 121 -27 67 -60 135 -72 150 -22 26 -22 26 1 -18 25 -46 86 -229 86 -255
0 -8 -3 -15 -7 -15 -5 -1 -27 -5 -50 -9 l-43 -8 -57 91 c-70 113 -109 163
-136 177 -12 7 -5 -4 16 -26 20 -21 62 -86 92 -146 56 -110 62 -125 46 -114
-5 3 -12 1 -16 -5 -3 -5 -15 -10 -25 -10 -10 0 -20 -5 -22 -11 -2 -6 -39 31
-83 82 -43 52 -93 105 -109 119 -25 19 -22 15 10 -21 38 -42 144 -192 144
-204 0 -3 -3 -4 -7 -3 -13 2 -48 -15 -59 -30 -16 -22 -44 -3 -149 97 -103 99
-96 85 24 -47 47 -51 80 -92 75 -91 -25 4 -44 -2 -44 -16 0 -26 -39 -16 -98
25 -31 22 -77 54 -102 71 -54 38 -31 14 72 -75 43 -36 72 -66 64 -66 -7 0 -21
-9 -31 -20 -22 -25 -51 -25 -90 -2 -66 40 -129 75 -120 65 6 -5 43 -33 82 -62
l73 -53 -29 -24 c-37 -31 -48 -30 -131 6 -89 39 -100 38 -25 -3 76 -41 113
-67 96 -67 -8 0 -25 -12 -38 -27 l-25 -26 -67 21 c-92 30 -98 28 -21 -9 36
-17 66 -32 68 -33 2 -2 -11 -18 -29 -35 -31 -31 -33 -32 -81 -22 -27 6 -61 10
-76 10 -20 -1 -22 -2 -7 -6 11 -2 41 -11 67 -19 43 -14 46 -17 33 -30 -8 -9
-15 -24 -15 -35 0 -17 -8 -19 -62 -20 -60 -1 -61 -2 -23 -10 22 -4 57 -8 78
-8 20 -1 37 -5 37 -11 0 -5 14 -7 33 -4 24 4 54 29 122 98 50 52 119 119 155
151 75 67 245 182 322 218 78 36 250 79 306 75 l47 -3 -88 -58 c-181 -121
-277 -292 -277 -497 0 -165 51 -284 174 -406 109 -108 239 -171 361 -175 33
-1 28 -3 -25 -11 -72 -10 -205 2 -379 32 -94 17 -114 25 -225 88 -66 39 -144
81 -172 95 -64 32 -246 205 -292 277 -20 30 -40 58 -46 62 -16 11 -38 10 -31
-2 4 -6 -8 -10 -28 -10 -33 0 -125 -26 -140 -40 -5 -4 18 -1 51 6 62 14 120 6
107 -16 -3 -5 0 -10 7 -10 7 -1 -15 -12 -50 -25 -34 -13 -73 -32 -85 -41 -19
-14 -19 -15 -2 -9 11 5 45 15 76 23 54 15 57 15 82 -5 l27 -21 -28 -7 c-36 -8
-163 -67 -158 -72 2 -3 36 7 76 21 75 27 115 32 125 16 3 -5 16 -10 28 -10 13
-1 -5 -12 -43 -29 -63 -28 -140 -69 -140 -76 0 -2 24 7 53 20 28 13 73 30 99
36 41 11 51 11 82 -6 l34 -19 -86 -38 c-47 -21 -91 -43 -96 -49 -8 -9 -6 -10
9 -4 149 59 173 63 216 43 25 -12 22 -14 -74 -61 -54 -27 -97 -51 -94 -53 3
-3 23 4 44 14 60 31 150 54 175 46 13 -4 29 -7 36 -6 24 5 11 -6 -70 -56 -121
-74 -135 -89 -36 -38 95 49 144 62 182 50 24 -8 20 -13 -77 -77 -119 -79 -176
-123 -107 -82 79 46 219 115 234 115 7 0 28 -6 46 -14 l33 -13 -89 -74 c-48
-41 -106 -91 -128 -113 l-41 -38 40 30 c137 102 245 170 264 165 12 -3 21 -8
21 -12 0 -13 -61 -104 -124 -186 -119 -155 -84 -123 82 73 47 57 88 98 90 93
2 -6 8 -9 13 -5 25 15 -17 -97 -93 -248 -26 -54 -46 -98 -44 -98 5 0 123 204
159 277 22 42 30 50 47 46 11 -3 23 -9 25 -14 9 -13 -33 -204 -60 -276 -14
-36 -23 -68 -21 -70 11 -11 116 289 116 332 0 8 9 13 20 12 35 -2 45 -50 45
-225 0 -200 13 -164 22 59 5 148 7 156 25 151 11 -2 26 -15 34 -27 19 -29 52
-163 69 -282 l15 -98 -5 100 c-4 91 -25 239 -41 287 -5 17 -3 18 15 9 12 -7
21 -8 21 -5 0 4 13 -7 30 -26 35 -40 67 -130 91 -264 l19 -101 -6 80 c-6 89
-25 187 -48 254 -9 24 -16 45 -16 46 0 9 59 -11 76 -27 30 -27 71 -121 100
-231 23 -88 24 -89 18 -32 -7 66 -46 211 -69 256 -15 28 -15 29 8 29 14 0 36
-9 49 -20 31 -24 94 -142 125 -235 17 -50 22 -59 18 -30 -10 60 -53 184 -84
240 l-28 50 28 0 c16 0 29 -3 29 -7 0 -5 6 -8 14 -8 33 0 111 -121 158 -245
15 -40 17 -43 13 -16 -7 47 -66 189 -99 237 -22 33 -24 40 -10 42 53 12 113
-51 174 -180 22 -46 40 -77 40 -71 0 17 -58 162 -76 191 -8 12 -21 33 -30 46
l-16 25 47 -4 c71 -6 108 -49 157 -185 31 -85 35 -85 13 2 -18 68 -60 162 -81
179 -8 6 -14 16 -14 22 0 6 3 7 6 4 4 -3 14 -2 24 3 10 5 20 6 24 3 4 -4 16
-8 28 -10 44 -7 87 -64 114 -148 8 -26 13 -32 13 -18 1 33 -37 129 -65 162
-22 27 -23 30 -7 33 28 6 83 -9 104 -28 11 -9 35 -49 54 -87 19 -38 35 -65 35
-58 0 23 -38 110 -68 153 l-30 44 38 2 c47 3 88 -29 131 -102 17 -28 27 -40
23 -26 -10 39 -40 94 -69 128 -21 25 -23 31 -9 36 56 21 109 -15 154 -107 18
-37 28 -50 24 -32 -8 36 -50 121 -64 130 -5 3 -14 14 -19 24 -8 14 -4 17 25
19 51 4 100 -31 145 -101 22 -33 39 -57 39 -53 0 15 -40 85 -74 129 l-36 47
45 0 c58 0 89 -21 126 -84 37 -66 37 -50 0 24 -25 49 -27 59 -15 64 46 18 96
-14 125 -78 10 -23 19 -34 19 -26 0 8 -11 38 -24 66 l-24 51 33 1 c40 2 62
-20 80 -80 11 -36 14 -38 14 -16 1 43 -29 109 -59 127 -15 9 -29 21 -31 26 -6
14 -280 6 -354 -10 -33 -8 -103 -30 -155 -50 -135 -50 -358 -95 -508 -102
-102 -5 -122 -4 -120 8 2 8 36 23 79 34 101 28 176 74 257 160 115 121 169
268 159 431 -13 183 -78 297 -267 463 l-35 30 36 1 c88 0 278 -82 377 -163 61
-51 122 -129 162 -207 39 -78 65 -108 80 -93 10 9 17 6 34 -13 18 -21 126 -72
126 -59 0 3 -22 16 -49 29 -46 24 -61 41 -61 71 0 11 10 11 57 0 32 -7 59 -12
61 -11 1 2 -21 12 -49 22 -29 11 -55 26 -59 34 -4 8 -12 26 -19 39 -13 23 -12
23 26 17 21 -4 49 -9 63 -12 22 -4 22 -3 5 5 -11 5 -41 17 -67 26 -33 11 -53
27 -68 51 -12 19 -27 34 -33 35 -35 3 49 17 113 19 l75 3 -91 7 c-106 9 -134
16 -134 35 0 7 -8 16 -17 19 -28 11 -2 24 102 50 117 29 104 33 -33 10 -72
-12 -104 -13 -124 -5 -49 19 -33 38 80 95 59 30 104 55 101 55 -3 1 -54 -19
-113 -44 -108 -45 -149 -54 -161 -35 -4 6 -11 8 -16 5 -5 -4 -9 -1 -9 4 0 6
-10 11 -22 11 -19 1 -3 21 82 102 107 103 109 111 10 28 -121 -101 -123 -102
-164 -85 -44 19 -47 12 74 165 94 119 90 115 -87 -73 -57 -61 -65 -66 -79 -52
-9 8 -24 15 -35 15 -10 0 -19 4 -19 9 0 16 83 186 116 239 19 29 34 56 34 60
0 14 -70 -92 -125 -190 l-57 -99 -44 3 c-44 3 -44 3 -38 33 11 51 85 259 101
285 14 23 14 24 -1 9 -10 -9 -43 -78 -74 -155 l-57 -139 -43 -1 c-23 -1 -42 2
-42 7 0 24 43 224 55 260 9 23 13 44 11 46 -5 5 -31 -62 -46 -117 -6 -25 -20
-75 -31 -112 -20 -67 -20 -68 -55 -68 -36 0 -36 0 -30 38 3 20 7 82 10 137 l5
100 -15 -85 c-27 -161 -35 -190 -50 -190 -19 0 -24 25 -33 180 l-8 135 -2
-126 c-1 -161 -7 -189 -36 -189 -24 0 -22 -5 -65 203 -13 59 -24 106 -27 104
-2 -2 3 -46 11 -98 8 -52 17 -120 21 -151 l6 -58 -30 0 c-16 0 -36 6 -44 14
-8 8 -28 70 -46 138 -17 68 -36 132 -41 143 l-10 20 4 -20 c7 -31 44 -225 51
-267 5 -31 3 -36 -12 -33 -10 2 -23 4 -30 4 -6 1 -30 58 -52 127 -39 118 -66
184 -76 184 -2 0 4 -19 14 -42z"/>
<path d="M9445 5845 c-40 -152 -50 -170 -98 -163 -19 3 -21 8 -19 48 2 25 10
89 18 143 9 54 14 101 11 103 -2 2 -12 -33 -21 -78 -47 -223 -46 -218 -72
-218 l-24 0 -1 148 c-1 147 -15 168 -19 27 -3 -115 -13 -169 -31 -173 -14 -2
-20 14 -33 90 -9 51 -20 116 -26 143 -9 48 -9 47 -5 -20 3 -38 8 -104 11 -146
l6 -75 -35 4 -35 4 -33 116 c-33 118 -56 182 -64 182 -2 0 3 -19 11 -42 16
-46 54 -225 54 -256 0 -16 -7 -19 -41 -18 l-41 1 -42 105 c-45 111 -83 190
-91 190 -3 0 3 -17 14 -37 17 -34 91 -256 91 -273 0 -4 -18 -12 -40 -18 l-40
-10 -41 72 c-75 129 -129 213 -146 227 -9 8 -2 -8 16 -34 18 -26 57 -98 87
-160 46 -96 51 -112 36 -115 -9 -2 -27 -8 -40 -14 -20 -10 -27 -7 -68 33 -25
24 -73 76 -106 116 -34 40 -64 70 -67 68 -2 -3 7 -18 20 -33 25 -27 150 -187
162 -207 3 -6 -4 -12 -15 -12 -12 -1 -24 -7 -28 -14 -13 -19 -48 0 -138 75
-133 110 -136 109 -18 -4 84 -81 105 -106 90 -109 -10 -2 -29 -10 -41 -18 -30
-20 -59 -14 -179 37 -53 23 -98 40 -99 38 -2 -2 45 -28 106 -58 60 -30 108
-59 106 -65 -2 -5 -16 -16 -31 -23 -22 -11 -44 -11 -137 4 -60 9 -113 14 -116
10 -4 -3 2 -6 12 -6 26 0 195 -43 195 -50 0 -3 -11 -17 -25 -32 -20 -21 -36
-27 -87 -32 -35 -3 -79 -8 -98 -9 -19 -2 -7 -5 26 -5 34 -1 75 -5 92 -8 29 -6
30 -6 11 -25 -10 -10 -19 -25 -19 -33 0 -13 -57 -41 -133 -66 -57 -18 -40 -22
23 -5 78 21 79 21 66 -20 -10 -31 -18 -38 -69 -57 -31 -11 -56 -22 -54 -24 1
-2 29 3 60 10 56 13 57 13 57 -9 0 -26 -21 -46 -73 -70 -59 -28 -36 -29 26 -1
31 13 61 33 68 44 10 16 17 18 30 11 21 -11 49 22 100 121 78 152 275 292 466
331 34 7 66 10 70 6 3 -4 -32 -44 -80 -90 -144 -136 -201 -261 -201 -437 0
-165 62 -309 180 -420 85 -79 153 -115 270 -144 96 -23 98 -24 60 -31 -118
-23 -442 25 -626 92 -161 59 -180 63 -348 73 -156 9 -197 7 -187 -10 2 -4 -7
-13 -20 -20 -28 -15 -51 -59 -59 -115 l-6 -40 15 44 c20 61 41 81 81 79 19 -1
34 -3 34 -4 0 -2 -9 -18 -20 -36 -11 -18 -20 -42 -20 -53 1 -15 4 -12 14 11
21 47 62 75 106 72 l37 -3 -28 -51 c-16 -28 -29 -57 -29 -65 1 -8 10 2 20 22
31 59 74 89 127 89 l45 0 -22 -27 c-43 -56 -80 -117 -80 -132 1 -9 9 0 20 20
10 19 39 54 64 77 41 37 51 42 90 40 l45 -1 -31 -35 c-32 -37 -67 -106 -68
-132 0 -8 15 12 33 45 39 69 86 102 131 91 l28 -7 -25 -32 c-29 -39 -77 -131
-77 -149 0 -7 14 12 30 42 44 80 82 111 131 108 43 -2 48 -8 22 -29 -19 -16
-73 -127 -72 -149 0 -8 10 8 23 35 39 86 98 129 158 117 16 -3 15 -7 -8 -37
-14 -19 -34 -62 -45 -96 -26 -83 -23 -110 3 -32 23 70 71 132 105 136 12 2 25
5 28 8 3 3 18 4 34 1 l28 -4 -33 -50 c-32 -48 -75 -163 -73 -197 1 -9 7 3 14
26 21 66 76 163 102 180 21 14 103 28 103 18 0 -3 -14 -26 -30 -52 -30 -47
-90 -191 -90 -215 0 -7 13 17 29 53 56 132 124 211 178 206 18 -1 17 -7 -19
-73 -38 -72 -88 -204 -88 -233 1 -9 15 22 33 69 38 98 96 193 129 211 12 7 37
15 55 19 l32 8 -34 -69 c-33 -65 -85 -223 -85 -258 0 -9 15 27 33 80 53 153
112 239 165 239 19 0 23 -4 17 -17 -33 -78 -49 -130 -66 -203 -25 -112 -23
-158 2 -55 43 176 98 277 153 280 23 1 26 -2 21 -20 -34 -103 -75 -338 -61
-352 2 -2 9 34 16 79 28 184 80 298 138 306 19 3 23 0 18 -15 -14 -46 -36
-203 -41 -291 l-5 -97 19 120 c33 209 59 284 101 295 l25 7 1 -141 c1 -78 6
-161 11 -186 6 -34 9 -7 8 110 0 168 11 225 44 227 15 1 21 -7 26 -30 16 -79
112 -343 122 -334 2 2 -8 35 -22 72 -34 88 -65 219 -65 270 0 35 3 40 23 41
20 1 30 -11 62 -75 40 -81 143 -261 150 -261 2 0 -29 69 -70 153 -84 175 -93
202 -66 204 12 1 50 -36 109 -106 109 -127 166 -183 95 -91 -62 79 -153 211
-153 221 0 3 9 9 21 12 15 4 53 -16 138 -75 64 -44 129 -92 146 -106 l30 -27
-25 29 c-14 15 -71 66 -127 113 -57 47 -103 88 -103 93 0 15 59 32 88 25 27
-5 120 -55 216 -115 84 -52 21 1 -91 75 -114 77 -116 79 -89 88 37 12 90 -3
184 -54 96 -51 83 -34 -24 32 -46 29 -88 57 -91 63 -3 6 -3 8 1 4 5 -4 19 -2
33 3 29 11 110 -9 176 -43 21 -10 41 -17 44 -14 4 3 -39 27 -94 54 l-101 48
30 13 c38 17 85 9 176 -28 40 -17 72 -28 72 -25 0 3 -45 27 -101 53 l-101 48
27 17 c33 22 68 18 156 -18 35 -14 65 -24 67 -21 5 5 -66 41 -135 70 l-52 21
45 13 c40 12 51 11 107 -7 34 -11 71 -23 82 -27 38 -12 -80 48 -130 66 -27 10
-43 18 -34 19 9 0 19 7 23 15 7 20 32 19 105 -4 34 -10 61 -17 61 -15 0 6 -62
36 -114 55 -28 9 -45 18 -38 18 7 1 10 6 7 11 -12 20 46 31 98 20 28 -6 52 -8
54 -6 7 7 -97 36 -128 36 -15 0 -29 5 -31 12 -8 22 -36 -1 -76 -59 -48 -70
-215 -233 -274 -266 -24 -13 -100 -56 -171 -96 -96 -54 -147 -76 -210 -90
-140 -33 -293 -51 -410 -50 l-112 2 77 8 c102 11 148 24 233 66 87 44 188 144
233 230 67 127 91 316 57 443 -36 135 -130 262 -255 345 -39 26 -70 51 -70 56
0 15 57 10 172 -17 142 -32 152 -37 291 -129 136 -90 247 -184 337 -285 63
-72 145 -124 159 -102 3 5 42 13 86 18 l80 9 -67 3 c-59 3 -68 5 -68 22 0 10
-7 25 -15 33 -13 14 -9 17 32 31 26 9 56 16 67 17 12 0 15 3 8 6 -7 3 -41 0
-76 -6 -64 -11 -64 -11 -94 19 -34 34 -33 37 48 74 65 31 52 34 -20 6 -65 -26
-76 -25 -103 3 -12 13 -28 26 -36 28 -7 3 25 26 70 52 46 26 81 47 78 47 -4 0
-39 -13 -77 -30 -39 -16 -77 -30 -84 -30 -13 0 -68 42 -68 52 0 3 38 31 85 63
47 32 85 60 85 63 0 2 -20 -8 -45 -22 -25 -14 -65 -38 -90 -52 -47 -27 -105
-27 -105 1 0 7 -7 15 -16 17 -10 2 18 31 78 82 51 44 98 84 103 90 17 17 -48
-25 -90 -58 -22 -18 -55 -43 -74 -56 -39 -27 -91 -36 -91 -15 0 7 -10 15 -22
19 -22 5 -20 8 27 58 140 148 158 169 140 160 -11 -6 -54 -45 -95 -87 -80 -81
-131 -117 -138 -96 -4 13 -51 36 -65 32 -10 -2 -7 4 56 98 28 41 70 94 94 118
24 24 35 40 25 34 -19 -10 -89 -84 -166 -176 -28 -32 -52 -53 -54 -47 -2 7
-12 12 -22 12 -10 0 -22 5 -25 10 -4 6 -11 8 -16 5 -29 -19 90 202 140 258 24
27 28 36 12 25 -28 -19 -78 -87 -143 -191 l-46 -75 -48 9 c-26 5 -49 11 -51
13 -6 6 34 148 59 210 10 27 29 63 41 80 18 26 18 29 2 16 -20 -16 -76 -133
-115 -238 -23 -62 -23 -63 -54 -56 -17 4 -38 8 -47 8 -14 0 -15 7 -3 66 16 86
42 186 60 230 12 31 12 33 0 16 -8 -10 -34 -77 -57 -150 -23 -72 -45 -134 -49
-139 -3 -4 -16 -9 -28 -12 -19 -3 -22 1 -22 28 0 18 12 88 25 156 14 69 23
126 21 128 -1 2 -20 -62 -41 -142z"/>
</g>
</svg>
